:SAMPLES-PER-SECOND 30
:FULLY-SPECIFIED
:DEGREES
642
root  -56.5875 38.9594 -3.34555 7.77112 -77.8842 -15.5813
RightUpLeg  -13.8843 -10.1556 2.00762
RightLeg  19.887 -0.514379 1.81954
RightFoot  1.62763 0.363178 -3.09211
RightToes  5.47152e-009 0 -3.6325e-017
Spine  6.04093 -2.76827 13.5794
Spine1  12.2312 -1.335 -0.574003
HEad  -10.4695 0.236401 -4.80105
LeftShoulder1  -0.0816025 3.72354 -31.0338
LeftArm  -11.0444 5.25604 -37.1565
LeftForeArm  67.8539 -79.0366 -86.9541
LeftHand  -0.022041 5.27388 -3.19218
RightShoulder  -0.449089 -4.86533 26.108
RightArm  -16.1381 -14.7447 33.4415
RightForeArm  110.638 70.8394 143.882
RightHand  -0.0324267 -4.97402 -2.27124
LeftUpLeg  -10.4482 3.63073 6.63873
LeftLeg  64.7455 -1.79032 -3.50795
LeftFoot  -0.76671 0.353182 -3.78257
LeftToes  -4.29285e-010 1.49941e-010 2.15559e-012
643
root  -57.089 39.0978 -3.41911 6.91248 -78.1059 -14.113
RightUpLeg  -13.5438 -9.77035 1.84629
RightLeg  19.6337 -0.724616 1.92648
RightFoot  1.05105 0.380636 -3.43834
RightToes  5.47152e-009 0 -3.6325e-017
Spine  6.66419 -2.64197 13.4946
Spine1  11.9746 -1.15039 -0.895478
HEad  -10.1621 1.69354 -4.70718
LeftShoulder1  -0.0201055 3.5578 -30.2981
LeftArm  -12.053 4.2571 -38.6082
LeftForeArm  64.9599 -79.0028 -83.5636
LeftHand  -0.016203 5.09102 -3.42887
RightShoulder  -0.454574 -4.87691 26.2217
RightArm  -16.2242 -11.3832 34.02
RightForeArm  107.802 72.094 140.777
RightHand  -0.0295411 -4.91248 -2.52665
LeftUpLeg  -14.908 4.47794 6.18286
LeftLeg  65.8866 -1.47788 -2.94489
LeftFoot  -2.62151 0.222415 -2.76988
LeftToes  -4.29285e-010 1.49941e-010 2.15559e-012
644
root  -57.5554 39.2849 -3.45033 4.96432 -78.7713 -11.425
RightUpLeg  -13.2079 -9.51568 1.38233
RightLeg  19.0528 -0.495472 2.16787
RightFoot  0.870279 0.473809 -4.36102
RightToes  5.47152e-009 0 -3.6325e-017
Spine  6.97733 -2.27004 13.8694
Spine1  11.6604 -0.512844 -2.12936
HEad  -9.68799 2.77212 -4.86479
LeftShoulder1  0.117791 3.17527 -29.6142
LeftArm  -12.6763 2.80668 -39.7515
LeftForeArm  60.3675 -78.8707 -78.7477
LeftHand  -0.0151055 4.9627 -3.12958
RightShoulder  -0.445756 -4.86276 25.9234
RightArm  -16.8884 -8.95922 35.0879
RightForeArm  105.266 73.0079 138.094
RightHand  -0.0317708 -4.84811 -2.3957
LeftUpLeg  -18.183 5.01105 5.07888
LeftLeg  63.697 -1.38979 -2.44012
LeftFoot  -4.68241 0.234305 -3.52312
LeftToes  -4.29285e-010 1.49941e-010 2.15559e-012
645
root  -58.0198 39.4443 -3.45285 3.22675 -79.2251 -9.1232
RightUpLeg  -12.3355 -9.17515 0.901646
RightLeg  17.7453 -0.309182 2.38047
RightFoot  0.493851 0.345229 -3.29833
RightToes  5.47152e-009 0 -3.6325e-017
Spine  7.02752 -2.07655 13.8136
Spine1  11.7504 -0.239717 -2.9714
HEad  -9.31376 3.88291 -5.48731
LeftShoulder1  0.0670205 3.31522 -29.3556
LeftArm  -13.2127 0.591889 -40.2799
LeftForeArm  56.1361 -78.6806 -74.8224
LeftHand  -0.0180845 5.14517 -2.96149
RightShoulder  -0.424807 -4.81605 25.3873
RightArm  -17.0761 -6.19531 35.9037
RightForeArm  102.025 73.9118 134.966
RightHand  -0.0351687 -4.91189 -2.54393
LeftUpLeg  -20.2999 4.90222 4.12771
LeftLeg  58.9031 -1.55821 -2.2555
LeftFoot  -5.71336 0.197418 -3.31428
LeftToes  -4.29285e-010 1.49941e-010 2.15559e-012
646
root  -58.4497 39.6057 -3.44313 2.37131 -79.279 -7.50934
RightUpLeg  -11.7243 -8.77987 0.624275
RightLeg  16.462 -0.660523 2.44321
RightFoot  0.253948 0.341596 -3.34461
RightToes  5.47152e-009 0 -3.6325e-017
Spine  6.68298 -1.88953 13.37
Spine1  11.8953 -0.335473 -2.81343
HEad  -9.23179 5.66566 -6.48284
LeftShoulder1  0.102046 3.21302 -29.2772
LeftArm  -13.6598 -1.40414 -40.8304
LeftForeArm  52.5773 -78.4737 -71.5509
LeftHand  -0.0199743 5.26022 -2.77538
RightShoulder  -0.294731 -4.44754 24.1087
RightArm  -17.3543 -3.9584 36.4983
RightForeArm  97.7794 74.8195 131.173
RightHand  -0.0401968 -4.46377 -2.21033
LeftUpLeg  -21.5236 3.74203 3.49932
LeftLeg  51.455 -2.16836 -2.45602
LeftFoot  -6.54665 0.163496 -2.97403
LeftToes  -4.29285e-010 1.49941e-010 2.15559e-012
647
root  -58.8743 39.7174 -3.3881 1.59064 -79.6922 -6.18219
RightUpLeg  -11.0621 -8.57403 0.354271
RightLeg  15.5138 -0.399652 2.57743
RightFoot  -0.36172 0.30949 -3.24086
RightToes  5.47152e-009 0 -3.6325e-017
Spine  6.28389 -1.6553 14.1108
Spine1  12.2024 0.199639 -4.2889
HEad  -9.10006 5.85794 -6.20824
LeftShoulder1  0.226604 2.84194 -28.0188
LeftArm  -14.1047 -3.22638 -42.3625
LeftForeArm  48.2795 -78.1205 -66.5925
LeftHand  -0.0125102 4.91922 -2.89122
RightShoulder  -0.292064 -4.45069 23.6796
RightArm  -17.4897 -1.66242 36.5455
RightForeArm  92.0766 75.7298 126.382
RightHand  -0.0439633 -4.24357 -2.31301
LeftUpLeg  -21.0288 1.94463 3.19571
LeftLeg  41.5058 -3.61976 -3.01565
LeftFoot  -6.74818 0.170142 -3.21951
LeftToes  -4.29285e-010 1.49941e-010 2.15559e-012
